<?xml version="1.0" encoding="UTF-8" standalone="no"?>
<svg
   xmlns:dc="http://purl.org/dc/elements/1.1/"
   xmlns:cc="http://creativecommons.org/ns#"
   xmlns:rdf="http://www.w3.org/1999/02/22-rdf-syntax-ns#"
   xmlns:svg="http://www.w3.org/2000/svg"
   xmlns="http://www.w3.org/2000/svg"
   xmlns:sodipodi="http://sodipodi.sourceforge.net/DTD/sodipodi-0.dtd"
   xmlns:inkscape="http://www.inkscape.org/namespaces/inkscape"
   width="210mm"
   height="297mm"
   viewBox="0 0 210 297"
   version="1.1"
   id="svg8"
   inkscape:version="1.0.1 (3bc2e813f5, 2020-09-07)"
   sodipodi:docname="drawing.svg">
  <defs
     id="defs2" />
  <sodipodi:namedview
     id="base"
     pagecolor="#ffffff"
     bordercolor="#666666"
     borderopacity="1.0"
     inkscape:pageopacity="0.0"
     inkscape:pageshadow="2"
     inkscape:zoom="1.4"
     inkscape:cx="96.933696"
     inkscape:cy="328.30561"
     inkscape:document-units="mm"
     inkscape:current-layer="layer1"
     inkscape:document-rotation="0"
     showgrid="false"
     inkscape:window-width="1920"
     inkscape:window-height="1013"
     inkscape:window-x="-9"
     inkscape:window-y="-9"
     inkscape:window-maximized="1" />
  <metadata
     id="metadata5">
    <rdf:RDF>
      <cc:Work
         rdf:about="">
        <dc:format>image/svg+xml</dc:format>
        <dc:type
           rdf:resource="http://purl.org/dc/dcmitype/StillImage" />
        <dc:title></dc:title>
      </cc:Work>
    </rdf:RDF>
  </metadata>
  <g
     inkscape:label="Layer 1"
     inkscape:groupmode="layer"
     id="layer1">
    <path
       style="fill:#999999;stroke-width:0.29849"
       d="m 65.04815,116.75887 c -0.267709,-1.22385 -0.74983,-5.62566 -1.053418,-9.61781 C 62.71594,90.324973 63.91341,75.728143 67.619979,62.950462 70.474418,53.110307 75.71322,43.730762 81.231012,38.58129 l 1.244733,-1.161647 1.391162,1.308483 c 3.353937,3.154616 7.483963,9.245092 10.047913,14.817478 5.617328,12.208489 8.34332,29.920706 7.40245,48.097676 -0.33042,6.38342 -0.97955,13.38899 -1.400599,15.11559 l -0.161143,0.66077 H 82.474102 65.192676 Z"
       id="path49" />
    <path
       id="path12"
       style="fill:none;stroke:#000000;stroke-width:0.264583px;stroke-linecap:butt;stroke-linejoin:miter;stroke-opacity:1"
       d="m 81.559858,67.462231 c -3.439844,8.39309 -4.703369,17.646408 -3.931917,26.670704 0.691634,7.824585 3.146538,15.474325 7.139149,22.239615" />
    <path
       style="fill:none;stroke:#000000;stroke-width:0.264583px;stroke-linecap:butt;stroke-linejoin:miter;stroke-opacity:1"
       d="m 81.559858,67.462231 c 0,0 -8.939691,9.209776 -1.990686,13.218819 6.949011,4.009043 0.801809,12.294398 0.801809,12.294398 0,0 -4.009045,8.819892 1.870887,12.027132 5.879932,3.20723 -1.632516,10.992 -1.632516,10.992"
       id="path15"
       sodipodi:nodetypes="cscsc" />
    <path
       style="fill:#cccccc;stroke:#000000;stroke-width:0.5;stroke-miterlimit:4;stroke-dasharray:none"
       d="M 79.393615,135.09693 C 53.618028,133.19909 32.136944,115.60774 26.249801,91.576268 c -1.19446,-4.875813 -1.496904,-7.518292 -1.496904,-13.078553 0,-5.560263 0.302444,-8.202739 1.496904,-13.078555 4.927317,-20.113455 21.195146,-36.272654 41.911749,-41.63188 3.039136,-0.786201 6.128906,-1.351755 9.38807,-1.718401 2.59947,-0.292432 9.135583,-0.291743 12.000743,0.0013 12.101287,1.23755 23.210967,5.861805 32.505947,13.530174 2.14786,1.771988 6.26032,5.920054 7.96015,8.029093 9.59791,11.908396 13.87045,26.652426 12.04834,41.577381 -2.27603,18.643073 -14.16221,35.098413 -31.53676,43.659773 -6.60937,3.25678 -12.816969,5.10461 -19.938243,5.93503 -3.090135,0.36035 -8.407998,0.50063 -11.196182,0.29533 z M 92.00721,129.8164 c 5.882555,-0.88329 11.30032,-2.57853 16.6541,-5.21113 5.6559,-2.78116 10.38259,-6.23134 14.91103,-10.8841 7.97049,-8.18932 12.84651,-18.342972 14.28315,-29.742801 0.30697,-2.43586 0.30688,-9.282547 -1.7e-4,-11.717261 -0.96226,-7.630276 -3.44995,-14.702861 -7.40051,-21.039873 -8.54092,-13.700291 -22.77044,-22.671119 -39.676024,-25.013258 -2.421808,-0.335523 -11.397623,-0.333394 -13.796131,0.0033 -4.93758,0.693063 -9.328529,1.790496 -13.290066,3.321595 -21.278905,8.22411 -34.87339,28.282309 -34.082643,50.287787 0.560562,15.599812 7.873116,29.574961 20.580397,39.331601 2.799689,2.1496 5.379125,3.72119 9.121926,5.55777 6.093748,2.9902 12.384696,4.7747 19.276785,5.4681 2.913965,0.29317 10.400913,0.0914 13.418156,-0.3617 z"
       id="path912" />
    <rect
       style="fill:#cccccc;stroke:#000000;stroke-width:0.499999;stroke-miterlimit:4;stroke-dasharray:none"
       id="rect937"
       width="21.166666"
       height="12.473214"
       x="52.870811"
       y="143.28181" />
    <rect
       style="fill:#cccccc;stroke:#000000;stroke-width:0.499999;stroke-miterlimit:4;stroke-dasharray:none"
       id="rect941"
       width="0.37797621"
       height="1.8898809"
       x="102.43154"
       y="145.52083" />
    <rect
       style="fill:#cccccc;stroke:#000000;stroke-width:0.499999;stroke-miterlimit:4;stroke-dasharray:none"
       id="rect937-8"
       width="21.166666"
       height="12.473214"
       x="85.989586"
       y="143.44197" />
    <path
       style="fill:#000000;stroke-width:0.0416711"
       d="m 100.38393,151.26452 c -0.17086,0.0374 -0.785377,0.10468 -1.342707,0.14707 -2.34764,0.17852 -4.38546,0.0113 -6.16931,-0.50611 -1.37375,-0.3985 -2.6832,-1.12988 -3.4021,-1.90019 l -0.16217,-0.17378 0.18267,-0.19422 c 0.4404,-0.46823 1.29068,-1.04481 2.06862,-1.40275 1.70439,-0.78422 4.17714,-1.16479 6.71476,-1.03343 0.89117,0.0461 1.869197,0.13675 2.110237,0.19553 l 0.0922,0.0225 v 2.4126 2.41261 z"
       id="path49-1" />
    <path
       style="fill:none;stroke:#000000;stroke-width:0.264583px;stroke-linecap:butt;stroke-linejoin:miter;stroke-opacity:1"
       d="m 100.35052,151.23111 c 0,0.86464 0.0472,6.98653 0,1.29612 -0.001,-0.1778 0,-1.29612 0,-1.29612 v 0"
       id="path984"
       sodipodi:nodetypes="cscc" />
    <path
       style="fill:#ff0000;stroke:#ff0000;stroke-width:0.264583px;stroke-linecap:butt;stroke-linejoin:miter;stroke-opacity:1"
       d="m 99.439641,154.53911 c 1.665809,-1.79539 1.665809,-1.79539 1.665809,-1.79539"
       id="path996" />
    <path
       style="fill:#ff0000;stroke:#ff0000;stroke-width:0.264583px;stroke-linecap:butt;stroke-linejoin:miter;stroke-opacity:1"
       d="m 99.319152,152.70238 2.043498,1.75405"
       id="path998"
       sodipodi:nodetypes="cc" />
  </g>
</svg>
